<svg xmlns="http://www.w3.org/2000/svg" xmlns:xlink="http://www.w3.org/1999/xlink" viewBox="0 0 384 385"><defs><style>.cls-1,.cls-4{fill:#fff;}.cls-1{stroke:#000;stroke-miterlimit:10;}.cls-2{fill:url(#Degradado_sin_nombre_23);}.cls-3{fill:url(#Degradado_sin_nombre_245);}.cls-5{fill:none;}.cls-6{fill:url(#Degradado_sin_nombre_226);}.cls-7{fill:url(#Degradado_sin_nombre_229);}.cls-8{opacity:0.29;fill:url(#Degradado_sin_nombre_254);}.cls-9{opacity:0.1;fill:url(#Degradado_sin_nombre_20);}</style><radialGradient id="Degradado_sin_nombre_23" cx="-72.05" cy="1850.02" fx="-58.74100285554013" fy="1883.0707402740945" r="245.54" gradientTransform="translate(-1577.69 9.4) rotate(-89.63)" gradientUnits="userSpaceOnUse"><stop offset="0" stop-color="#fff"/><stop offset="0.24" stop-color="#ffead2"/><stop offset="0.34" stop-color="#ffd5a7"/><stop offset="0.44" stop-color="#ffc17d"/><stop offset="0.55" stop-color="#ffb05b"/><stop offset="0.66" stop-color="#ffa340"/><stop offset="0.77" stop-color="#ff9a2d"/><stop offset="0.88" stop-color="#ff9522"/><stop offset="1" stop-color="#ff931e"/></radialGradient><radialGradient id="Degradado_sin_nombre_245" cx="-1812.88" cy="1401.98" r="114.15" gradientTransform="matrix(-1, 0, 0, -1, -1633.8, 1670.02)" gradientUnits="userSpaceOnUse"><stop offset="0" stop-color="#fff"/><stop offset="0.13" stop-color="#c4e5fc"/><stop offset="0.26" stop-color="#8ccbf9"/><stop offset="0.38" stop-color="#62b9f7"/><stop offset="0.47" stop-color="#48adf5"/><stop offset="0.53" stop-color="#3fa9f5"/><stop offset="0.53" stop-color="#3fa9f5"/><stop offset="0.96" stop-color="#3fa9f5"/><stop offset="0.96" stop-color="#3fa9f5"/><stop offset="1" stop-color="#3fa9f5"/></radialGradient><linearGradient id="Degradado_sin_nombre_226" x1="-1837.95" y1="1491.42" x2="-1711.65" y2="1491.42" gradientTransform="translate(-1635.69 1667.99) rotate(-179.87)" gradientUnits="userSpaceOnUse"><stop offset="0.01" stop-color="#cce0f4"/><stop offset="0.05" stop-color="#c3dcf2"/><stop offset="0.12" stop-color="#a9d2ee"/><stop offset="0.21" stop-color="#80c2e7"/><stop offset="0.31" stop-color="#47acde"/><stop offset="0.37" stop-color="#1e9cd7"/><stop offset="0.72" stop-color="#0075be"/><stop offset="0.99" stop-color="#005b97"/></linearGradient><linearGradient id="Degradado_sin_nombre_229" x1="-63.96" y1="1738.56" x2="-222.86" y2="1872.42" gradientTransform="translate(-1577.69 9.4) rotate(-89.63)" gradientUnits="userSpaceOnUse"><stop offset="0" stop-color="#f15a24" stop-opacity="0.3"/><stop offset="0.09" stop-color="#f15a24" stop-opacity="0.34"/><stop offset="0.23" stop-color="#f15a24" stop-opacity="0.44"/><stop offset="0.4" stop-color="#f15a24" stop-opacity="0.62"/><stop offset="0.57" stop-color="#f15a24" stop-opacity="0.8"/><stop offset="0.87" stop-color="#f15a24"/><stop offset="1" stop-color="#f15a24"/></linearGradient><radialGradient id="Degradado_sin_nombre_254" cx="35.66" cy="107.5" r="117.28" gradientTransform="translate(75.72 69.01) rotate(0.26)" gradientUnits="userSpaceOnUse"><stop offset="0" stop-color="#fff"/><stop offset="0.04" stop-color="#ededed"/><stop offset="0.17" stop-color="#bcbcbc"/><stop offset="0.3" stop-color="#929292"/><stop offset="0.44" stop-color="#707070"/><stop offset="0.57" stop-color="#555"/><stop offset="0.71" stop-color="#424242"/><stop offset="0.85" stop-color="#373737"/><stop offset="1" stop-color="#333"/></radialGradient><linearGradient id="Degradado_sin_nombre_20" x1="-1896.81" y1="1477.05" x2="-1879.57" y2="1340.73" gradientTransform="matrix(-1, 0, 0, -1, -1633.8, 1670.02)" gradientUnits="userSpaceOnUse"><stop offset="0" stop-color="#a4d3fa"/><stop offset="0.04" stop-color="#9ecbf1"/><stop offset="0.1" stop-color="#8db6d7"/><stop offset="0.18" stop-color="#7292ad"/><stop offset="0.27" stop-color="#4c6274"/><stop offset="0.37" stop-color="#1c242b"/><stop offset="0.43"/><stop offset="0.99"/></linearGradient></defs><g id="Capa_2" data-name="Capa 2"><g id="Capa_1-2" data-name="Capa 1"><path class="cls-1" d="M383.5,72.42V312.58a71.82,71.82,0,0,1-71.73,71.92H72.23A71.83,71.83,0,0,1,.5,312.58V72.42A71.83,71.83,0,0,1,72.23.5H311.77A71.82,71.82,0,0,1,383.5,72.42Z"/><path class="cls-2" d="M218.94,83c-10.81,14.18-17.29,29.69-21.17,43-1.82-.16-3.67-.25-5.53-.26A66.56,66.56,0,0,0,125.6,186.8l.39-85.66a113.59,113.59,0,0,1,11.74-7.46A112.92,112.92,0,0,1,218.94,83Z"/><path class="cls-3" d="M200.42,258.25a66.59,66.59,0,0,0,58-63.69L258.39,210l-.29,73.48a112.1,112.1,0,0,1-52.94,20.66A128.32,128.32,0,0,0,200.42,258.25Z"/><path class="cls-4" d="M79.41,192.43c0-.87,0-1.74,0-2.6v5.43C79.42,194.32,79.41,193.38,79.41,192.43Z"/><path d="M79.45,189.83c0,.86,0,1.73,0,2.6s0,1.89,0,2.83v-5.43Z"/><path class="cls-5" d="M258.45,194.55h0a66.56,66.56,0,0,1-132.9,2.49l0-10.25a66.56,66.56,0,0,1,66.64-61.13c1.86,0,3.71.1,5.53.26a66.56,66.56,0,0,1,60.69,64.48v0"/><path class="cls-6" d="M79.44,191.81,80,63.71A7.19,7.19,0,0,1,90,57.1l27.12,11.18a14.52,14.52,0,0,1,9,13.51l-.48,105c-.14,1.69-.21,3.4-.22,5.12s.05,3.43.17,5.12a66.55,66.55,0,0,0,65.63,61.74h.45a67.15,67.15,0,0,0,8.79-.53c.05.18.1.36.16.54a126.73,126.73,0,0,1,4.77,41.9h0c0,1.16-.12,2.32-.19,3.45-3,.36-6.1.59-9.2.69-1.48.05-3,.08-4.45.07A112.5,112.5,0,0,1,79.44,191.81Z"/><path class="cls-7" d="M304.09,321.28a7.19,7.19,0,0,1-9.92,6.62L267,316.74a14.52,14.52,0,0,1-9-13.5l.07-19.75.35-88.93h0c0-.67,0-1.34,0-2s0-1.41,0-2.1v0a66.56,66.56,0,0,0-60.69-64.48l0-.12a.25.25,0,0,1,0-.07c3.88-13.21,10.36-28.64,21.11-42.76q3.65.9,7.2,2c.72.23,1.43.46,2.15.71a112.48,112.48,0,0,1,76.3,104.23V190l0,5.43v.05Z"/><path class="cls-8" d="M137.73,93.68c-8.68,17.63-11.3,46.4-12,66.54l.27-59.08A113.59,113.59,0,0,1,137.73,93.68Z"/><path class="cls-9" d="M243.71,292c11.88-27.24,14.24-63.71,14.68-80.44l-.28,71.59A109.62,109.62,0,0,1,243.71,292Z"/></g></g></svg>