<svg xmlns="http://www.w3.org/2000/svg" viewBox="0 0 384 385"><defs><style>.cls-1{fill:#fff;}.cls-1,.cls-2{stroke:#000;stroke-miterlimit:10;}.cls-2{fill:none;}</style></defs><g id="Capa_2" data-name="Capa 2"><g id="Capa_1-2" data-name="Capa 1"><path class="cls-1" d="M383.5,72.42V312.58a71.82,71.82,0,0,1-71.73,71.92H72.23A71.83,71.83,0,0,1,.5,312.58V72.42A71.83,71.83,0,0,1,72.23.5H311.77A71.82,71.82,0,0,1,383.5,72.42Z"/><path d="M108.7,259.5H66.9a12.11,12.11,0,0,1-1.2-5.8q0-8.2,6-8.2h8.6l42.2-104H107.9a12.11,12.11,0,0,1-1.2-5.8q0-8.2,6-8.2h29.2c4.27,0,7.13,1,8.6,3.1a42.79,42.79,0,0,1,4.6,9.7l39,105.2h13a11.4,11.4,0,0,1,1.2,5.8q0,8.2-6,8.2H157.9a12.11,12.11,0,0,1-1.2-5.8q0-8.2,6-8.2h11.8l-10.6-29.2H109.1L97.7,245.5h15.8a11.4,11.4,0,0,1,1.2,5.8Q114.7,259.51,108.7,259.5Zm29-117-23.6,60.4h45.2Z"/><path d="M263.9,124.5q13.61,0,23.3,4.8t13.7,13.2V132.3q0-3.8,2.1-5.4t6.9-1.6a23.36,23.36,0,0,1,6.2,1.2v34c0,3.73-.6,6.27-1.8,7.6s-3.73,2-7.6,2a12.48,12.48,0,0,1-6-1.4q-.19-15.19-9.7-22.5t-24.7-7.3q-12.19,0-18.9,5.8a18.48,18.48,0,0,0-6.7,14.6q0,8.59,5.2,13.5t18,8.5l22.2,6.4q17.2,5,24.9,13.4t7.7,23q0,17.4-11.6,27.3t-31.2,9.9q-14,0-24.7-4.7t-15.3-13.7v10.4q0,3.8-2.2,5.4c-1.47,1.07-3.73,1.6-6.8,1.6a22,22,0,0,1-6.2-1V222.5q0-5.4,1.8-7.4t7.4-2a13.71,13.71,0,0,1,6.2,1.4q.41,15.8,10.3,24t26.3,8.2q12.8,0,19.8-5.4t7-15.4q0-8.81-5.2-14.2t-17.4-8.8l-22.4-6.4q-16.8-5-24.7-13.6t-7.9-22.6q0-15.8,11.4-25.8T263.9,124.5Z"/><path class="cls-2" d="M373.51,78.65V306.29a68.08,68.08,0,0,1-68,68.17h-227a68.09,68.09,0,0,1-68-68.17V78.65a68.78,68.78,0,0,1,1-12,68.08,68.08,0,0,1,67-56.17H305.52A68.09,68.09,0,0,1,373.51,78.65Z"/></g></g></svg>